<?xml version="1.0" encoding="UTF-8"?>
<!DOCTYPE svg PUBLIC "-//W3C//DTD SVG 1.1//EN" "http://www.w3.org/Graphics/SVG/1.1/DTD/svg11.dtd">
<svg xmlns="http://www.w3.org/2000/svg" version="1.1" width="139px" height="20px" style="shape-rendering:geometricPrecision; text-rendering:geometricPrecision; image-rendering:optimizeQuality; fill-rule:evenodd; clip-rule:evenodd" xmlns:xlink="http://www.w3.org/1999/xlink">
<g><path style="opacity:0.895" fill="#33d35f" d="M 10.5,-0.5 C 12.5,-0.5 14.5,-0.5 16.5,-0.5C 16.4431,0.608953 16.1098,1.60895 15.5,2.5C 13.5659,1.88972 11.8993,0.889724 10.5,-0.5 Z"/></g>
<g><path style="opacity:0.483" fill="#35d85b" d="M 17.5,-0.5 C 19.8333,-0.5 22.1667,-0.5 24.5,-0.5C 24.5,-0.166667 24.5,0.166667 24.5,0.5C 23.8333,1.16667 23.1667,1.83333 22.5,2.5C 20.6316,1.73685 18.9649,0.736849 17.5,-0.5 Z"/></g>
<g><path style="opacity:0.502" fill="#32d069" d="M 16.5,-0.5 C 16.8333,-0.5 17.1667,-0.5 17.5,-0.5C 18.9649,0.736849 20.6316,1.73685 22.5,2.5C 22.5,2.83333 22.5,3.16667 22.5,3.5C 22.1667,3.5 21.8333,3.5 21.5,3.5C 19.6208,2.65859 17.6208,2.32526 15.5,2.5C 16.1098,1.60895 16.4431,0.608953 16.5,-0.5 Z"/></g>
<g><path style="opacity:0.149" fill="#32cf64" d="M 24.5,-0.5 C 26.1667,-0.5 27.8333,-0.5 29.5,-0.5C 29.7845,1.41467 29.4511,3.08134 28.5,4.5C 26.6593,3.59774 25.326,2.26441 24.5,0.5C 24.5,0.166667 24.5,-0.166667 24.5,-0.5 Z"/></g>
<g><path style="opacity:0.829" fill="#32cf6b" d="M 9.5,-0.5 C 9.83333,-0.5 10.1667,-0.5 10.5,-0.5C 11.8993,0.889724 13.5659,1.88972 15.5,2.5C 15.1667,3.16667 14.8333,3.83333 14.5,4.5C 12.2972,4.39643 10.2972,3.72976 8.5,2.5C 8.55688,1.39105 8.89022,0.391047 9.5,-0.5 Z"/></g>
<g><path style="opacity:0.149" fill="#2fd175" d="M 24.5,0.5 C 25.326,2.26441 26.6593,3.59774 28.5,4.5C 28.6716,5.49162 28.3382,6.15829 27.5,6.5C 26.078,5.07501 24.4113,4.07501 22.5,3.5C 22.5,3.16667 22.5,2.83333 22.5,2.5C 23.1667,1.83333 23.8333,1.16667 24.5,0.5 Z"/></g>
<g><path style="opacity:0.502" fill="#32cd78" d="M 15.5,2.5 C 17.6208,2.32526 19.6208,2.65859 21.5,3.5C 21.5,4.16667 21.5,4.83333 21.5,5.5C 20.8333,6.16667 20.1667,6.83333 19.5,7.5C 17.6675,6.75152 16.0009,5.75152 14.5,4.5C 14.8333,3.83333 15.1667,3.16667 15.5,2.5 Z"/></g>
<g><path style="opacity:0.808" fill="#36c975" d="M 8.5,2.5 C 10.2972,3.72976 12.2972,4.39643 14.5,4.5C 14.1667,5.5 13.5,6.16667 12.5,6.5C 11.1805,5.05817 9.5138,4.39151 7.5,4.5C 7.32842,3.50838 7.66175,2.84171 8.5,2.5 Z"/></g>
<g><path style="opacity:0.149" fill="#30cc7e" d="M 22.5,3.5 C 24.4113,4.07501 26.078,5.07501 27.5,6.5C 27.6716,7.49162 27.3382,8.15829 26.5,8.5C 23.676,8.01065 22.3426,6.34399 22.5,3.5 Z"/></g>
<g><path style="opacity:0.502" fill="#33c890" d="M 14.5,4.5 C 16.0009,5.75152 17.6675,6.75152 19.5,7.5C 18.8902,8.39105 18.5569,9.39105 18.5,10.5C 18.5,11.1667 18.1667,11.5 17.5,11.5C 15.8583,9.91917 13.8583,9.2525 11.5,9.5C 12.1098,8.60895 12.4431,7.60895 12.5,6.5C 13.5,6.16667 14.1667,5.5 14.5,4.5 Z"/></g>
<g><path style="opacity:1" fill="#2fc889" d="M 7.5,4.5 C 9.5138,4.39151 11.1805,5.05817 12.5,6.5C 12.4431,7.60895 12.1098,8.60895 11.5,9.5C 11.5,9.83333 11.5,10.1667 11.5,10.5C 11.1667,10.5 10.8333,10.5 10.5,10.5C 9.16667,9.16667 7.83333,7.83333 6.5,6.5C 6.32842,5.50838 6.66175,4.84171 7.5,4.5 Z"/></g>
<g><path style="opacity:0.149" fill="#2fc993" d="M 21.5,3.5 C 21.8333,3.5 22.1667,3.5 22.5,3.5C 22.3426,6.34399 23.676,8.01065 26.5,8.5C 26.0679,9.70951 25.4013,10.7095 24.5,11.5C 22.6833,9.98778 21.6833,7.98778 21.5,5.5C 21.5,4.83333 21.5,4.16667 21.5,3.5 Z"/></g>
<g><path style="opacity:1" fill="#2fc598" d="M 6.5,6.5 C 7.83333,7.83333 9.16667,9.16667 10.5,10.5C 10.5,11.1667 10.5,11.8333 10.5,12.5C 10.1667,12.5 9.83333,12.5 9.5,12.5C 7.93731,11.0552 6.60398,9.38855 5.5,7.5C 5.5,6.83333 5.83333,6.5 6.5,6.5 Z"/></g>
<g><path style="opacity:0.149" fill="#2fc29d" d="M 21.5,5.5 C 21.6833,7.98778 22.6833,9.98778 24.5,11.5C 24.5,11.8333 24.5,12.1667 24.5,12.5C 22.6854,11.3702 20.6854,10.7036 18.5,10.5C 18.5569,9.39105 18.8902,8.39105 19.5,7.5C 20.1667,6.83333 20.8333,6.16667 21.5,5.5 Z"/></g>
<g><path style="opacity:0.433" fill="#2ebfb0" d="M 10.5,10.5 C 10.8333,10.5 11.1667,10.5 11.5,10.5C 13.2202,11.3077 14.8869,12.3077 16.5,13.5C 15.4324,14.4345 14.099,14.7678 12.5,14.5C 12.1667,13.5 11.5,12.8333 10.5,12.5C 10.5,11.8333 10.5,11.1667 10.5,10.5 Z"/></g>
<g><path style="opacity:0.441" fill="#2ec2a3" d="M 11.5,9.5 C 13.8583,9.2525 15.8583,9.91917 17.5,11.5C 17.5,11.8333 17.5,12.1667 17.5,12.5C 16.8333,12.5 16.5,12.8333 16.5,13.5C 14.8869,12.3077 13.2202,11.3077 11.5,10.5C 11.5,10.1667 11.5,9.83333 11.5,9.5 Z"/></g>
<g><path style="opacity:0.968" fill="#2dbeb6" d="M 3.5,11.5 C 5.40209,13.1511 7.40209,13.4845 9.5,12.5C 9.83333,12.5 10.1667,12.5 10.5,12.5C 11.5,12.8333 12.1667,13.5 12.5,14.5C 10.901,14.2322 9.56764,14.5655 8.5,15.5C 6.29719,15.3964 4.29719,14.7298 2.5,13.5C 2.32842,12.5084 2.66175,11.8417 3.5,11.5 Z"/></g>
<g><path style="opacity:1" fill="#2fc0a8" d="M 5.5,7.5 C 6.60398,9.38855 7.93731,11.0552 9.5,12.5C 7.40209,13.4845 5.40209,13.1511 3.5,11.5C 3.6596,9.84702 4.32627,8.51369 5.5,7.5 Z"/></g>
<g><path style="opacity:0.149" fill="#31c1ae" d="M 18.5,10.5 C 20.6854,10.7036 22.6854,11.3702 24.5,12.5C 24.0679,13.7095 23.4013,14.7095 22.5,15.5C 20.6316,14.7368 18.9649,13.7368 17.5,12.5C 17.5,12.1667 17.5,11.8333 17.5,11.5C 18.1667,11.5 18.5,11.1667 18.5,10.5 Z"/></g>
<g><path style="opacity:1" fill="#2fbabf" d="M 2.5,13.5 C 4.29719,14.7298 6.29719,15.3964 8.5,15.5C 8.5,15.8333 8.5,16.1667 8.5,16.5C 7.83333,16.8333 7.16667,17.1667 6.5,17.5C 4.95047,16.5592 3.2838,15.8925 1.5,15.5C 1.32842,14.5084 1.66175,13.8417 2.5,13.5 Z"/></g>
<g><path style="opacity:0.86" fill="#2abcce" d="M 1.5,15.5 C 3.2838,15.8925 4.95047,16.5592 6.5,17.5C 6.5,17.8333 6.5,18.1667 6.5,18.5C 4.19438,18.0074 1.86105,17.6741 -0.5,17.5C -0.5,17.1667 -0.5,16.8333 -0.5,16.5C 0.166667,16.1667 0.833333,15.8333 1.5,15.5 Z"/></g>
<g><path style="opacity:0.502" fill="#2bb8c5" d="M 12.5,14.5 C 12.427,16.0269 13.0937,17.0269 14.5,17.5C 14.5,18.1667 14.5,18.8333 14.5,19.5C 13.8333,19.5 13.1667,19.5 12.5,19.5C 11.5637,18.0256 10.2303,17.0256 8.5,16.5C 8.5,16.1667 8.5,15.8333 8.5,15.5C 9.56764,14.5655 10.901,14.2322 12.5,14.5 Z"/></g>
<g><path style="opacity:0.149" fill="#2bb9be" d="M 17.5,12.5 C 18.9649,13.7368 20.6316,14.7368 22.5,15.5C 22.573,17.0269 21.9063,18.0269 20.5,18.5C 18.7708,17.8825 17.2708,16.8825 16,15.5C 15.7216,16.4158 15.2216,17.0825 14.5,17.5C 13.0937,17.0269 12.427,16.0269 12.5,14.5C 14.099,14.7678 15.4324,14.4345 16.5,13.5C 16.5,12.8333 16.8333,12.5 17.5,12.5 Z"/></g>
<g><path style="opacity:0.38" fill="#2ab6d5" d="M 8.5,16.5 C 10.2303,17.0256 11.5637,18.0256 12.5,19.5C 10.5,19.5 8.5,19.5 6.5,19.5C 6.5,19.1667 6.5,18.8333 6.5,18.5C 6.5,18.1667 6.5,17.8333 6.5,17.5C 7.16667,17.1667 7.83333,16.8333 8.5,16.5 Z"/></g>
<g><path style="opacity:0.149" fill="#2ab6d5" d="M 20.5,18.5 C 20.5,18.8333 20.5,19.1667 20.5,19.5C 18.5,19.5 16.5,19.5 14.5,19.5C 14.5,18.8333 14.5,18.1667 14.5,17.5C 15.2216,17.0825 15.7216,16.4158 16,15.5C 17.2708,16.8825 18.7708,17.8825 20.5,18.5 Z"/></g>
<g><path style="opacity:0.125" fill="#29b6d3" d="M -0.5,17.5 C 1.86105,17.6741 4.19438,18.0074 6.5,18.5C 6.5,18.8333 6.5,19.1667 6.5,19.5C 4.16667,19.5 1.83333,19.5 -0.5,19.5C -0.5,18.8333 -0.5,18.1667 -0.5,17.5 Z"/></g>
</svg>
