<?xml version="1.0" encoding="UTF-8"?>
<!DOCTYPE svg PUBLIC "-//W3C//DTD SVG 1.1//EN" "http://www.w3.org/Graphics/SVG/1.1/DTD/svg11.dtd">
<svg xmlns="http://www.w3.org/2000/svg" version="1.1" width="139px" height="20px" style="shape-rendering:geometricPrecision; text-rendering:geometricPrecision; image-rendering:optimizeQuality; fill-rule:evenodd; clip-rule:evenodd" xmlns:xlink="http://www.w3.org/1999/xlink">
<g><path style="opacity:0.149" fill="#34ce5b" d="M 28.5,-0.5 C 29.5,-0.5 30.5,-0.5 31.5,-0.5C 29.4049,5.79529 28.4049,5.79529 28.5,-0.5 Z"/></g>
<g><path style="opacity:0.879" fill="#2d314c" d="M 83.5,-0.5 C 85.1667,-0.5 86.8333,-0.5 88.5,-0.5C 88.5,0.5 88.5,1.5 88.5,2.5C 92.4925,2.24471 95.3258,3.91138 97,7.5C 97.9476,5.4299 99.4476,3.9299 101.5,3C 104.8,3.04552 108.134,3.21218 111.5,3.5C 111.5,7.5 111.5,11.5 111.5,15.5C 107.818,15.6653 104.152,15.4986 100.5,15C 99.3333,13.8333 98.1667,12.6667 97,11.5C 96.5348,12.9308 95.7014,14.0975 94.5,15C 90.8484,15.4986 87.1817,15.6653 83.5,15.5C 83.6653,11.8183 83.4986,8.15159 83,4.5C 81.1527,9.90729 78.6527,14.9073 75.5,19.5C 73.8333,19.5 72.1667,19.5 70.5,19.5C 70.5,18.1667 70.5,16.8333 70.5,15.5C 71.5,15.5 72.5,15.5 73.5,15.5C 73.0348,11.9385 71.8681,8.60515 70,5.5C 69.5,6.66667 68.6667,7.5 67.5,8C 70.7381,12.4185 69.5714,14.9185 64,15.5C 61.1082,15.9343 59.2749,14.7676 58.5,12C 58.9054,11.0546 59.572,10.3879 60.5,10C 57.6465,5.86473 58.8132,3.36473 64,2.5C 65.8951,2.61485 67.5618,3.28151 69,4.5C 72.1429,2.82774 74.6429,3.49441 76.5,6.5C 77.3857,5.67504 77.719,4.67504 77.5,3.5C 79.5,3.5 81.5,3.5 83.5,3.5C 83.5,2.16667 83.5,0.833333 83.5,-0.5 Z M 88.5,7.5 C 91.1662,7.06577 92.3329,8.06577 92,10.5C 89.3422,11.694 88.1756,10.694 88.5,7.5 Z M 102.5,7.5 C 105.166,7.06577 106.333,8.06577 106,10.5C 103.342,11.694 102.176,10.694 102.5,7.5 Z"/></g>
<g><path style="opacity:0.861" fill="#2d314d" d="M 126.5,-0.5 C 128.167,-0.5 129.833,-0.5 131.5,-0.5C 131.34,1.19919 131.506,2.86586 132,4.5C 134.041,3.57692 136.208,3.24358 138.5,3.5C 138.5,3.83333 138.5,4.16667 138.5,4.5C 134.5,7.5 134.5,10.5 138.5,13.5C 138.5,14.1667 138.5,14.8333 138.5,15.5C 135.921,15.9167 133.754,15.25 132,13.5C 130.599,15.1922 128.766,15.8588 126.5,15.5C 126.5,10.1667 126.5,4.83333 126.5,-0.5 Z"/></g>
<g><path style="opacity:0.839" fill="#2c304b" d="M 35.5,2.5 C 43.221,2.93984 45.5544,6.77318 42.5,14C 34.3285,17.8064 30.4952,15.3064 31,6.5C 31.9066,4.39092 33.4066,3.05759 35.5,2.5 Z"/></g>
<g><path style="opacity:0.867" fill="#2c2f4c" d="M 48.5,2.5 C 51.4824,2.96286 54.4824,3.29619 57.5,3.5C 57.5,7.5 57.5,11.5 57.5,15.5C 53.8183,15.6653 50.1516,15.4986 46.5,15C 44.4963,12.1592 43.9963,8.99257 45,5.5C 46.1451,4.36362 47.3117,3.36362 48.5,2.5 Z M 49.5,7.5 C 50.5,7.5 51.5,7.5 52.5,7.5C 51.5,12.8333 50.5,12.8333 49.5,7.5 Z"/></g>
<g><path style="opacity:0.844" fill="#2d304d" d="M 118.5,2.5 C 120.582,2.47199 122.416,3.13865 124,4.5C 124.499,8.15159 124.665,11.8183 124.5,15.5C 122.833,15.5 121.167,15.5 119.5,15.5C 118.833,4.83333 118.167,4.83333 117.5,15.5C 115.833,15.5 114.167,15.5 112.5,15.5C 112.5,11.5 112.5,7.5 112.5,3.5C 114.735,3.79472 116.735,3.46138 118.5,2.5 Z"/></g>
</svg>
