<?xml version="1.0" encoding="UTF-8"?>
<svg xmlns="http://www.w3.org/2000/svg" xmlns:xlink="http://www.w3.org/1999/xlink" width="326.41pt" height="237.36pt" viewBox="0 0 326.41 237.36" version="1.1">
<defs>
<clipPath id="clip1">
  <path d="M 44 210 L 74 210 L 74 237.359375 L 44 237.359375 Z M 44 210 "/>
</clipPath>
<clipPath id="clip2">
  <path d="M 75 201 L 105 201 L 105 237.359375 L 75 237.359375 Z M 75 201 "/>
</clipPath>
<clipPath id="clip3">
  <path d="M 108 210 L 138 210 L 138 237.359375 L 108 237.359375 Z M 108 210 "/>
</clipPath>
<clipPath id="clip4">
  <path d="M 219 201 L 253 201 L 253 237.359375 L 219 237.359375 Z M 219 201 "/>
</clipPath>
<clipPath id="clip5">
  <path d="M 256 200 L 289 200 L 289 237.359375 L 256 237.359375 Z M 256 200 "/>
</clipPath>
<clipPath id="clip6">
  <path d="M 289 201 L 326.410156 201 L 326.410156 237 L 289 237 Z M 289 201 "/>
</clipPath>
</defs>
<g id="surface1">
<path style=" stroke:none;fill-rule:nonzero;fill:rgb(92.199707%,12.5%,15.299988%);fill-opacity:1;" d="M 316.058594 29.503906 C 281.652344 28.097656 243.03125 47.058594 220.558594 62.503906 C 208.296875 70.9375 193.101563 76.648438 179.3125 80.101563 L 169.144531 58.585938 C 183.203125 55.167969 198.851563 49.382813 211.429688 40.734375 C 233.898438 25.289063 272.523438 6.328125 306.933594 7.734375 C 311.140625 7.910156 320.441406 8.261719 323.078125 8.785156 L 323.078125 29.855469 C 320.621094 29.675781 319.039063 29.675781 316.058594 29.503906 "/>
<path style=" stroke:none;fill-rule:nonzero;fill:rgb(92.199707%,12.5%,15.299988%);fill-opacity:1;" d="M 240.039063 -0.00390625 C 226.296875 5.976563 213.90625 13.140625 204.410156 19.671875 C 191.089844 28.828125 174.308594 34.777344 159.644531 38.277344 L 149.605469 16.71875 C 163.308594 13.515625 178.96875 8.183594 191.976563 0.0625 L 240.039063 -0.00390625 "/>
<path style=" stroke:none;fill-rule:nonzero;fill:rgb(92.199707%,12.5%,15.299988%);fill-opacity:1;" d="M 0.0546875 185.230469 C 21.449219 183.449219 57.527344 175.296875 81.523438 157.304688 C 106.804688 138.339844 134.890625 127.105469 166.488281 127.105469 C 181.9375 127.105469 214.238281 120.789063 236.707031 105.339844 C 257.210938 91.246094 291.15625 74.226563 323.078125 72.421875 L 323.078125 50.566406 C 288.671875 49.164063 250.050781 68.121094 227.578125 83.570313 C 205.109375 99.019531 172.808594 105.339844 157.359375 105.339844 C 125.761719 105.339844 97.671875 116.574219 72.394531 135.535156 C 51.535156 151.179688 21.539063 159.382813 0 162.429688 L 0.0546875 185.230469 "/>
<path style=" stroke:none;fill-rule:nonzero;fill:rgb(8.599854%,28.599548%,61.199951%);fill-opacity:1;" d="M 0.09375 140.195313 C 20.746094 136.453125 46.773438 128.414063 65.371094 114.464844 C 90.652344 95.507813 118.738281 84.273438 150.339844 84.273438 C 157.355469 84.273438 167.847656 82.972656 179.3125 80.101563 L 141.738281 0.0078125 L 0.0703125 0.0078125 L 0.09375 140.195313 "/>
<path style=" stroke:none;fill-rule:nonzero;fill:rgb(92.199707%,12.5%,15.299988%);fill-opacity:1;" d="M 112.875 189.65625 C 133.914063 177.21875 156.8125 169.941406 181.9375 169.941406 C 197.382813 169.941406 229.683594 163.621094 252.160156 148.175781 C 269.359375 136.347656 296.039063 122.457031 323.035156 117.234375 L 323.066406 94.035156 C 293.0625 97.519531 262.179688 113.238281 243.03125 126.402344 C 220.558594 141.851563 188.253906 148.175781 172.808594 148.175781 C 141.210938 148.175781 113.121094 159.410156 87.84375 178.367188 C 82.140625 182.644531 75.757813 186.367188 69.046875 189.574219 L 112.875 189.65625 "/>
<path style=" stroke:none;fill-rule:nonzero;fill:rgb(92.199707%,12.5%,15.299988%);fill-opacity:1;" d="M 269.703125 189.585938 C 283.488281 180.386719 302.640625 170.226563 323.015625 163.964844 L 323.097656 139.65625 C 298.28125 145.660156 274.351563 158.328125 258.476563 169.242188 C 242.058594 180.527344 220.386719 186.9375 203.871094 189.574219 L 269.703125 189.585938 "/>
<path style=" stroke:none;fill-rule:nonzero;fill:rgb(100%,100%,100%);fill-opacity:1;" d="M 14.378906 118.039063 L 15.171875 112.183594 L 19.488281 116.222656 L 25.316406 115.386719 L 22.652344 120.621094 L 25.316406 125.792969 L 19.570313 124.933594 L 15.171875 129.015625 L 14.300781 123.1875 L 9.109375 120.589844 L 14.378906 118.039063 "/>
<path style=" stroke:none;fill-rule:nonzero;fill:rgb(100%,100%,100%);fill-opacity:1;" d="M 45.625 106.101563 L 46.417969 100.246094 L 50.738281 104.285156 L 56.566406 103.445313 L 53.898438 108.683594 L 56.566406 113.855469 L 50.820313 112.992188 L 46.417969 117.082031 L 45.546875 111.25 L 40.355469 108.652344 L 45.625 106.101563 "/>
<path style=" stroke:none;fill-rule:nonzero;fill:rgb(100%,100%,100%);fill-opacity:1;" d="M 74.769531 89.25 L 75.558594 83.394531 L 79.882813 87.433594 L 85.707031 86.59375 L 83.039063 91.835938 L 85.707031 97.003906 L 79.960938 96.144531 L 75.558594 100.230469 L 74.6875 94.398438 L 69.496094 91.800781 L 74.769531 89.25 "/>
<path style=" stroke:none;fill-rule:nonzero;fill:rgb(100%,100%,100%);fill-opacity:1;" d="M 106.71875 73.800781 L 107.511719 67.945313 L 111.832031 71.984375 L 117.65625 71.148438 L 114.988281 76.386719 L 117.65625 81.558594 L 111.910156 80.699219 L 107.511719 84.78125 L 106.640625 78.949219 L 101.449219 76.351563 L 106.71875 73.800781 "/>
<path style=" stroke:none;fill-rule:nonzero;fill:rgb(100%,100%,100%);fill-opacity:1;" d="M 144.636719 68.183594 L 145.429688 62.328125 L 149.75 66.367188 L 155.574219 65.527344 L 152.910156 70.765625 L 155.574219 75.941406 L 149.828125 75.078125 L 145.429688 79.164063 L 144.558594 73.328125 L 139.367188 70.734375 L 144.636719 68.183594 "/>
<path style=" stroke:none;fill-rule:nonzero;fill:rgb(100%,100%,100%);fill-opacity:1;" d="M 120.0625 50.980469 L 120.851563 45.125 L 125.171875 49.164063 L 130.996094 48.324219 L 128.332031 53.5625 L 130.996094 58.738281 L 125.25 57.878906 L 120.851563 61.960938 L 119.980469 56.128906 L 114.789063 53.53125 L 120.0625 50.980469 "/>
<path style=" stroke:none;fill-rule:nonzero;fill:rgb(100%,100%,100%);fill-opacity:1;" d="M 82.144531 58.351563 L 82.933594 52.496094 L 87.253906 56.535156 L 93.078125 55.699219 L 90.414063 60.9375 L 93.078125 66.113281 L 87.332031 65.25 L 82.933594 69.335938 L 82.0625 63.5 L 76.871094 60.902344 L 82.144531 58.351563 "/>
<path style=" stroke:none;fill-rule:nonzero;fill:rgb(100%,100%,100%);fill-opacity:1;" d="M 50.542969 75.207031 L 51.335938 69.347656 L 55.65625 73.390625 L 61.476563 72.550781 L 58.8125 77.789063 L 61.476563 82.964844 L 55.734375 82.101563 L 51.335938 86.1875 L 50.464844 80.351563 L 45.273438 77.757813 L 50.542969 75.207031 "/>
<path style=" stroke:none;fill-rule:nonzero;fill:rgb(100%,100%,100%);fill-opacity:1;" d="M 21.050781 92.410156 L 21.84375 86.554688 L 26.160156 90.59375 L 31.988281 89.757813 L 29.324219 94.992188 L 31.988281 100.164063 L 26.242188 99.304688 L 21.84375 103.390625 L 20.972656 97.558594 L 15.78125 94.960938 L 21.050781 92.410156 "/>
<path style=" stroke:none;fill-rule:nonzero;fill:rgb(100%,100%,100%);fill-opacity:1;" d="M 0.0742188 69.703125 L 4.394531 73.742188 L 10.21875 72.902344 L 7.554688 78.140625 L 10.21875 83.316406 L 4.472656 82.453125 L 0.0742188 86.539063 L 0.0742188 69.703125 "/>
<path style=" stroke:none;fill-rule:nonzero;fill:rgb(100%,100%,100%);fill-opacity:1;" d="M 28.777344 62.917969 L 29.566406 57.0625 L 33.886719 61.101563 L 39.710938 60.261719 L 37.046875 65.5 L 39.710938 70.675781 L 33.964844 69.8125 L 29.566406 73.898438 L 28.695313 68.0625 L 23.507813 65.46875 L 28.777344 62.917969 "/>
<path style=" stroke:none;fill-rule:nonzero;fill:rgb(100%,100%,100%);fill-opacity:1;" d="M 58.617188 45.363281 L 59.410156 39.507813 L 63.730469 43.546875 L 69.554688 42.707031 L 66.890625 47.945313 L 69.554688 53.121094 L 63.808594 52.257813 L 59.410156 56.34375 L 58.539063 50.511719 L 53.347656 47.914063 L 58.617188 45.363281 "/>
<path style=" stroke:none;fill-rule:nonzero;fill:rgb(100%,100%,100%);fill-opacity:1;" d="M 90.214844 29.914063 L 91.011719 24.058594 L 95.328125 28.097656 L 101.152344 27.261719 L 98.488281 32.5 L 101.152344 37.671875 L 95.410156 36.8125 L 91.011719 40.894531 L 90.136719 35.0625 L 84.949219 32.464844 L 90.214844 29.914063 "/>
<path style=" stroke:none;fill-rule:nonzero;fill:rgb(100%,100%,100%);fill-opacity:1;" d="M 128.488281 25 L 129.28125 19.144531 L 133.597656 23.183594 L 139.421875 22.34375 L 136.757813 27.582031 L 139.421875 32.757813 L 133.675781 31.894531 L 129.28125 35.980469 L 128.40625 30.144531 L 123.21875 27.550781 L 128.488281 25 "/>
<path style=" stroke:none;fill-rule:nonzero;fill:rgb(100%,100%,100%);fill-opacity:1;" d="M 120.035156 0 L 118.148438 3.707031 L 120.8125 8.882813 L 115.070313 8.019531 L 110.671875 12.105469 L 109.796875 6.269531 L 104.609375 3.675781 L 109.878906 1.125 L 110.027344 0.0195313 L 120.035156 0 "/>
<path style=" stroke:none;fill-rule:nonzero;fill:rgb(100%,100%,100%);fill-opacity:1;" d="M 71.960938 7.445313 L 72.75 1.589844 L 77.070313 5.628906 L 82.894531 4.789063 L 80.230469 10.027344 L 82.894531 15.199219 L 77.152344 14.339844 L 72.75 18.425781 L 71.878906 12.59375 L 66.691406 9.996094 L 71.960938 7.445313 "/>
<path style=" stroke:none;fill-rule:nonzero;fill:rgb(100%,100%,100%);fill-opacity:1;" d="M 41.0625 24.296875 L 41.855469 18.441406 L 46.171875 22.480469 L 51.996094 21.640625 L 49.335938 26.878906 L 51.996094 32.054688 L 46.253906 31.191406 L 41.855469 35.277344 L 40.984375 29.441406 L 35.792969 26.847656 L 41.0625 24.296875 "/>
<path style=" stroke:none;fill-rule:nonzero;fill:rgb(100%,100%,100%);fill-opacity:1;" d="M 10.515625 41.851563 L 11.308594 35.996094 L 15.628906 40.035156 L 21.453125 39.195313 L 18.789063 44.433594 L 21.453125 49.609375 L 15.710938 48.75 L 11.308594 52.832031 L 10.4375 47 L 5.25 44.402344 L 10.515625 41.851563 "/>
<path style=" stroke:none;fill-rule:nonzero;fill:rgb(100%,100%,100%);fill-opacity:1;" d="M 20.347656 9.199219 L 21.140625 3.34375 L 25.460938 7.382813 L 31.285156 6.546875 L 28.621094 11.78125 L 31.285156 16.957031 L 25.539063 16.097656 L 21.140625 20.179688 L 20.269531 14.347656 L 15.078125 11.75 L 20.347656 9.199219 "/>
<path style=" stroke:none;fill-rule:nonzero;fill:rgb(13.299561%,12.199402%,12.5%);fill-opacity:1;" d="M 39.476563 236.5625 L 29.628906 236.5625 L 29.628906 215.914063 L 24.308594 236.5625 L 16.375 236.5625 L 11.054688 215.914063 L 11.054688 236.5625 L 1.3125 236.5625 L 1.3125 201.117188 L 15.632813 201.117188 L 20.367188 220.171875 L 25.320313 201.117188 L 39.476563 201.117188 L 39.476563 236.5625 "/>
<g clip-path="url(#clip1)" clip-rule="nonzero">
<path style=" stroke:none;fill-rule:nonzero;fill:rgb(13.299561%,12.199402%,12.5%);fill-opacity:1;" d="M 56.773438 226.773438 C 54.699219 227.304688 53.847656 227.992188 53.847656 229.222656 C 53.847656 230.492188 55.019531 231.347656 56.773438 231.347656 C 59.96875 231.347656 61.9375 229.328125 61.9375 225.863281 L 61.9375 224.585938 C 60.605469 225.652344 59.539063 226.132813 56.773438 226.773438 Z M 53.953125 237.359375 C 48.3125 237.359375 44.746094 234.539063 44.746094 229.960938 C 44.746094 227.035156 46.339844 224.535156 48.898438 223.363281 C 50.496094 222.617188 52.359375 222.140625 55.601563 221.554688 C 60.925781 220.597656 61.832031 220.171875 61.832031 218.570313 C 61.832031 217.296875 60.605469 216.496094 58.640625 216.496094 C 56.296875 216.496094 54.964844 217.457031 54.964844 219.054688 C 54.964844 219.210938 54.964844 219.425781 54.964844 219.636719 L 45.8125 219.636719 C 46.234375 213.089844 50.015625 210.222656 58.265625 210.222656 C 62.417969 210.222656 65.660156 210.910156 67.792969 212.238281 C 70.347656 213.785156 71.304688 216.070313 71.304688 220.277344 L 71.304688 231.296875 C 71.304688 234.222656 71.78125 235.449219 73.167969 236.5625 L 62.734375 236.5625 C 62.308594 235.820313 61.992188 234.539063 61.9375 233.6875 C 59.859375 236.351563 57.628906 237.359375 53.953125 237.359375 "/>
</g>
<g clip-path="url(#clip2)" clip-rule="nonzero">
<path style=" stroke:none;fill-rule:nonzero;fill:rgb(13.299561%,12.199402%,12.5%);fill-opacity:1;" d="M 90.039063 217.507813 C 87.324219 217.507813 85.621094 219.90625 85.621094 223.683594 C 85.621094 227.355469 87.273438 229.699219 89.882813 229.699219 C 92.648438 229.699219 94.511719 227.25 94.511719 223.632813 C 94.511719 219.90625 92.753906 217.507813 90.039063 217.507813 Z M 104.144531 236.5625 L 95.042969 236.5625 L 94.777344 233.425781 C 93.019531 236.246094 90.835938 237.359375 87.21875 237.359375 C 82.109375 237.359375 78.808594 235.074219 77 230.335938 C 76.253906 228.261719 75.828125 226.078125 75.828125 223.839844 C 75.828125 215.808594 80.40625 210.222656 87.007813 210.222656 C 90.144531 210.222656 92.488281 211.386719 94.511719 213.835938 L 94.511719 201.117188 L 104.144531 201.117188 L 104.144531 236.5625 "/>
</g>
<g clip-path="url(#clip3)" clip-rule="nonzero">
<path style=" stroke:none;fill-rule:nonzero;fill:rgb(13.299561%,12.199402%,12.5%);fill-opacity:1;" d="M 122.929688 216.875 C 120.480469 216.875 118.726563 218.414063 118.40625 220.914063 L 127.242188 220.914063 C 126.976563 218.308594 125.433594 216.875 122.929688 216.875 Z M 118.351563 226.289063 C 118.726563 229.058594 120.589844 230.65625 123.40625 230.65625 C 125.058594 230.65625 126.285156 230.015625 127.136719 228.796875 L 136.554688 228.953125 C 135.757813 231.1875 135.226563 232.09375 134.003906 233.320313 C 131.394531 235.875 127.242188 237.359375 122.878906 237.359375 C 114.519531 237.359375 108.667969 231.773438 108.667969 223.683594 C 108.667969 216.019531 114.628906 210.222656 122.558594 210.222656 C 131.445313 210.222656 137.085938 216.445313 137.140625 226.289063 L 118.351563 226.289063 "/>
</g>
<path style=" stroke:none;fill-rule:nonzero;fill:rgb(13.299561%,12.199402%,12.5%);fill-opacity:1;" d="M 166.257813 236.5625 L 156.625 236.5625 L 156.625 211.015625 L 166.257813 211.015625 Z M 166.257813 207.984375 L 156.625 207.984375 L 156.625 201.117188 L 166.257813 201.117188 L 166.257813 207.984375 "/>
<path style=" stroke:none;fill-rule:nonzero;fill:rgb(13.299561%,12.199402%,12.5%);fill-opacity:1;" d="M 181.210938 214.742188 C 183.394531 211.492188 185.628906 210.222656 189.460938 210.222656 C 194.996094 210.222656 198.613281 213.941406 198.613281 219.585938 L 198.613281 236.5625 L 189.300781 236.5625 L 189.300781 221.980469 C 189.300781 219.691406 187.972656 218.308594 185.789063 218.308594 C 183.070313 218.308594 181.636719 220.117188 181.636719 223.527344 L 181.636719 236.5625 L 172.007813 236.5625 L 172.007813 211.015625 L 180.996094 211.015625 L 181.210938 214.742188 "/>
<g clip-path="url(#clip4)" clip-rule="nonzero">
<path style=" stroke:none;fill-rule:nonzero;fill:rgb(13.299561%,12.199402%,12.5%);fill-opacity:1;" d="M 252.160156 222.675781 C 252.160156 227.675781 251.144531 230.492188 248.589844 233.105469 C 245.558594 236.140625 241.9375 237.359375 236.136719 237.359375 C 231.347656 237.359375 227.890625 236.5625 225.121094 234.96875 C 220.96875 232.46875 219.476563 229.113281 219.476563 222.300781 L 219.476563 201.117188 L 230.230469 201.117188 L 230.230469 222.675781 C 230.230469 226.878906 231.9375 228.738281 235.820313 228.738281 C 239.382813 228.738281 241.296875 226.609375 241.296875 222.675781 L 241.296875 201.117188 L 252.160156 201.117188 L 252.160156 222.675781 "/>
</g>
<g clip-path="url(#clip5)" clip-rule="nonzero">
<path style=" stroke:none;fill-rule:nonzero;fill:rgb(13.299561%,12.199402%,12.5%);fill-opacity:1;" d="M 276.59375 211.707031 C 276.003906 209.523438 274.773438 208.675781 272.0625 208.675781 C 269.824219 208.675781 268.390625 209.523438 268.390625 210.753906 C 268.390625 211.917969 269.300781 212.402344 273.925781 213.515625 L 277.441406 214.367188 C 284.886719 216.179688 288.621094 219.851563 288.621094 225.386719 C 288.621094 232.515625 282.179688 237.359375 272.703125 237.359375 C 263.285156 237.359375 256.632813 232.574219 256.632813 225.652344 L 256.632813 225.117188 L 267.433594 224.90625 C 267.964844 228.050781 269.511719 229.273438 272.914063 229.273438 C 275.738281 229.273438 277.492188 228.207031 277.492188 226.503906 C 277.492188 225.066406 276.90625 224.691406 273.445313 223.683594 L 270.734375 222.886719 C 264.507813 221.078125 262.109375 219.957031 260.191406 218.039063 C 258.601563 216.390625 257.695313 213.996094 257.695313 211.335938 C 257.695313 204.363281 262.910156 200.316406 271.851563 200.316406 C 281.804688 200.316406 286.378906 203.675781 287.128906 211.550781 L 276.59375 211.707031 "/>
</g>
<g clip-path="url(#clip6)" clip-rule="nonzero">
<path style=" stroke:none;fill-rule:nonzero;fill:rgb(13.299561%,12.199402%,12.5%);fill-opacity:1;" d="M 311.449219 224.21875 L 308.152344 213.785156 L 304.53125 224.21875 Z M 300.328125 236.5625 L 289.734375 236.5625 L 302.722656 201.117188 L 313.421875 201.117188 L 326.410156 236.5625 L 315.550781 236.5625 L 313.847656 231.558594 L 302.03125 231.558594 L 300.328125 236.5625 "/>
</g>
</g>
</svg>
